<svg width="16" height="15" viewBox="0 0 16 15" fill="none" xmlns="http://www.w3.org/2000/svg">
<path fill-rule="evenodd" clip-rule="evenodd" d="M12.4764 2.5431C12.1792 2.12476 11.3842 1.53678 10.0966 1.79042C9.34546 1.93782 8.89661 2.30099 8.61113 2.78027C8.30713 3.29085 8.15976 3.98506 8.15976 4.79292C8.15976 5.01133 8.07103 5.22079 7.91311 5.37523C7.75518 5.52967 7.54098 5.61643 7.31764 5.61643C5.32519 5.61643 3.42874 5.03751 1.83293 3.47202C1.71231 4.10717 1.66486 4.75354 1.69146 5.39903C1.73609 6.29335 1.9542 7.19016 2.4721 7.95849C2.98158 8.71364 3.81949 9.40539 5.22077 9.8402C5.35808 9.8828 5.48192 9.95912 5.58045 10.0619C5.67898 10.1646 5.74891 10.2904 5.78355 10.4271C5.81819 10.5639 5.81638 10.707 5.7783 10.8429C5.74022 10.9787 5.66713 11.1028 5.56604 11.2031C5.11732 11.6535 4.60859 12.0426 4.05359 12.3601C4.94624 12.4507 5.80688 12.4573 6.60521 12.3865C8.22207 12.2432 9.50967 11.7911 10.3147 11.1512C12.0099 9.80726 12.9169 7.80284 12.7484 4.44458C12.7198 3.89283 13.2647 3.29744 13.5274 2.84533C13.1308 2.9178 12.7333 2.90462 12.4764 2.5431ZM1.34114 0.89197C1.4936 0.874642 1.64802 0.898395 1.78768 0.960661C1.92734 1.02293 2.04695 1.12134 2.13357 1.24525C3.37653 3.02321 4.86876 3.76272 6.52521 3.93071C6.60605 3.23814 6.79721 2.55381 7.15679 1.951C7.68396 1.06655 8.54123 0.415983 9.76567 0.175519C11.4583 -0.157178 12.7468 0.442335 13.4937 1.17608L15.0028 0.900205C15.1607 0.87127 15.3238 0.887114 15.4728 0.945867C15.6218 1.00462 15.7505 1.10383 15.8437 1.23179C15.937 1.35975 15.9908 1.51111 15.9989 1.66803C16.007 1.82494 15.9691 1.98084 15.8895 2.11735L14.4411 4.60599C14.5733 8.19731 13.5527 10.7041 11.3766 12.431C10.2229 13.3467 8.57071 13.8663 6.75763 14.0269C4.93024 14.1883 2.86453 13.9932 0.811446 13.4068C0.636026 13.3568 0.48201 13.2523 0.37264 13.1091C0.263271 12.966 0.204482 12.7919 0.205148 12.6133C0.205813 12.4346 0.265896 12.2609 0.37633 12.1186C0.486763 11.9762 0.641553 11.8728 0.81734 11.824C1.84978 11.5366 2.63631 11.2888 3.34622 10.8548C2.33652 10.331 1.59293 9.64585 1.06661 8.86517C0.33565 7.77979 0.0644882 6.56923 0.0105928 5.47808C-0.0433027 4.38694 0.117542 3.37567 0.287649 2.64686C0.384493 2.23099 0.497336 1.8143 0.653128 1.41572C0.708081 1.27522 0.801338 1.15213 0.922776 1.05979C1.04421 0.967462 1.18835 0.909421 1.34114 0.89197Z" fill="#1B1B1B"/>
</svg>
