<svg width="16" height="17" viewBox="0 0 16 17" fill="none" xmlns="http://www.w3.org/2000/svg">
<path d="M8 0.0813141C12.4184 0.0813141 16 3.66291 16 8.08131C16 12.4997 12.4184 16.0813 8 16.0813C6.63838 16.0832 5.29898 15.7362 4.10961 15.0733L3.8656 14.9309L1.44001 15.6445C1.30801 15.6834 1.16826 15.6879 1.03402 15.6577C0.899774 15.6274 0.775479 15.5634 0.672916 15.4717C0.570353 15.3799 0.492921 15.2635 0.447961 15.1334C0.403 15.0034 0.392001 14.864 0.416006 14.7285L0.436806 14.6413L1.15041 12.2157C0.396049 10.9687 -0.00184995 9.53872 6.46627e-06 8.08131C6.46627e-06 3.66291 3.5816 0.0813141 8 0.0813141ZM8 1.68131C6.85411 1.68111 5.72917 1.98856 4.74267 2.57156C3.75617 3.15457 2.94429 3.99175 2.39182 4.99566C1.83934 5.99958 1.56654 7.13342 1.60189 8.27877C1.63725 9.42412 1.97946 10.539 2.59281 11.5069C2.75121 11.7565 2.81921 12.0637 2.76561 12.3685L2.73441 12.4989L2.38161 13.6997L3.58241 13.3469C3.92881 13.2445 4.28881 13.3069 4.5744 13.4885C5.41307 14.0195 6.36376 14.3482 7.35132 14.4485C8.33888 14.5489 9.33625 14.4181 10.2646 14.0666C11.1929 13.7151 12.0267 13.1524 12.7001 12.4231C13.3736 11.6939 13.8681 10.8179 14.1447 9.86459C14.4213 8.91126 14.4723 7.90665 14.2938 6.9302C14.1153 5.95374 13.712 5.03219 13.116 4.23841C12.52 3.44463 11.7474 2.80038 10.8595 2.35658C9.97162 1.91278 8.99265 1.6816 8 1.68131ZM5.6816 4.22851C5.77026 4.19055 5.86722 4.17612 5.96309 4.18663C6.05895 4.19715 6.15048 4.23224 6.2288 4.28851C6.632 4.58291 6.952 4.97811 7.2272 5.36371L7.4888 5.74291L7.6112 5.92291C7.68209 6.02608 7.71691 6.14977 7.71025 6.27476C7.7036 6.39976 7.65584 6.51905 7.5744 6.61411L7.5144 6.67491L6.7752 7.22371C6.74003 7.24979 6.71531 7.28756 6.70549 7.33023C6.69566 7.3729 6.70138 7.41768 6.7216 7.45651C6.8896 7.76051 7.1864 8.21411 7.5272 8.55491C7.8688 8.89571 8.3432 9.21251 8.668 9.39891C8.7384 9.43891 8.8232 9.42611 8.8808 9.37411L8.9112 9.33811L9.392 8.60611C9.48014 8.48836 9.61051 8.40939 9.75569 8.38581C9.90087 8.36224 10.0495 8.3959 10.1704 8.47971L10.6048 8.78291C11.0368 9.09091 11.452 9.42211 11.7808 9.84211C11.8416 9.92104 11.8803 10.0148 11.8928 10.1136C11.9053 10.2125 11.8912 10.3129 11.852 10.4045C11.5352 11.1437 10.7328 11.7733 9.8992 11.7429L9.772 11.7349L9.6192 11.7205L9.5328 11.7093L9.3424 11.6773C8.6032 11.5381 7.4184 11.1189 6.1904 9.89171C4.9632 8.66371 4.544 7.47891 4.4048 6.73971L4.37281 6.54931L4.35281 6.38291L4.3424 6.24291L4.3392 6.18291C4.3088 5.34771 4.94161 4.54531 5.6816 4.22851Z" fill="#1B1B1B"/>
</svg>
