<svg width="16" height="14" viewBox="0 0 16 14" fill="none" xmlns="http://www.w3.org/2000/svg">
<path d="M15.9841 10.5925C15.9579 10.4669 15.8986 10.3501 15.812 10.2532C15.7254 10.1564 15.6144 10.083 15.4898 10.04C15.3982 10.0062 13.8211 9.40374 12.9506 7.33812L13.9624 6.94625C14.0587 6.91101 14.1468 6.85753 14.2215 6.78894C14.2962 6.72034 14.3561 6.63801 14.3975 6.54675C14.439 6.45549 14.4613 6.35714 14.463 6.25745C14.4648 6.15775 14.446 6.05872 14.4078 5.96615C14.3695 5.87357 14.3126 5.7893 14.2404 5.71827C14.1682 5.64725 14.082 5.59089 13.987 5.55249C13.892 5.51409 13.7901 5.49442 13.6871 5.49464C13.5842 5.49485 13.4823 5.51495 13.3875 5.55375L12.526 5.8875C12.4302 5.34667 12.3836 4.79873 12.3867 4.25C12.3867 3.12283 11.9244 2.04182 11.1015 1.2448C10.2786 0.447766 9.16252 0 7.99878 0C6.83504 0 5.71897 0.447766 4.89608 1.2448C4.07319 2.04182 3.6109 3.12283 3.6109 4.25C3.61336 4.79938 3.56629 5.34792 3.47023 5.88937L2.60814 5.55562C2.51331 5.51682 2.41145 5.49673 2.30851 5.49651C2.20556 5.4963 2.10361 5.51596 2.00861 5.55436C1.91361 5.59276 1.82747 5.64912 1.75522 5.72015C1.68298 5.79118 1.62608 5.87544 1.58785 5.96802C1.54963 6.0606 1.53085 6.15963 1.53261 6.25932C1.53437 6.35901 1.55663 6.45737 1.5981 6.54862C1.63956 6.63988 1.6994 6.72222 1.77411 6.79081C1.84882 6.85941 1.9369 6.91289 2.0332 6.94812L3.04499 7.34C2.17451 9.40374 0.598102 10.0056 0.513571 10.0375C0.388667 10.0808 0.277333 10.1544 0.190245 10.2513C0.103156 10.3482 0.0432337 10.4652 0.0162228 10.591C-0.0107882 10.7168 -0.00398196 10.8472 0.0359889 10.9697C0.0759598 11.0922 0.147755 11.2027 0.24449 11.2906C0.766519 11.7656 1.52536 11.8381 2.19516 11.9025C2.55781 11.9369 2.96949 11.9762 3.1534 12.0744C3.32052 12.1631 3.53669 12.4494 3.72769 12.7037C4.08324 13.1762 4.52655 13.7662 5.24216 13.9412C5.90228 14.1044 6.53981 13.8944 7.10184 13.7087C7.42448 13.6025 7.75809 13.4925 8.00007 13.4925C8.24205 13.4925 8.57566 13.6025 8.89829 13.7087C9.31837 13.8475 9.78039 14 10.2631 14C10.4299 14.0005 10.5962 13.9807 10.758 13.9412C11.4736 13.7637 11.9195 13.1762 12.2724 12.7037C12.466 12.4537 12.6796 12.1631 12.8467 12.0744C13.0306 11.9762 13.4423 11.9369 13.805 11.9025C14.4748 11.84 15.2336 11.7656 15.7556 11.2906C15.8522 11.2029 15.9238 11.0926 15.9638 10.9704C16.0038 10.8482 16.0108 10.7181 15.9841 10.5925ZM12.0982 10.76C11.6291 11.01 11.3052 11.44 11.0193 11.8225C10.8096 12.1006 10.5483 12.4475 10.374 12.4912C10.1611 12.5444 9.77264 12.4162 9.39709 12.2925C8.97573 12.1531 8.49822 11.9956 8.00007 11.9956C7.50192 11.9956 7.02441 12.1531 6.60305 12.2925C6.22749 12.4175 5.83904 12.5425 5.6261 12.4912C5.44929 12.4475 5.18795 12.1006 4.98082 11.8225C4.69496 11.4431 4.37103 11.01 3.90192 10.76C3.53088 10.5619 3.09919 10.4887 2.66557 10.4412C2.838 10.2908 3.00233 10.1318 3.15791 9.96499C3.71543 9.36687 4.33812 8.465 4.74013 7.19C4.74041 7.18876 4.74041 7.18748 4.74013 7.18625C4.7582 7.14329 4.77182 7.09869 4.78078 7.05312C5.04126 6.1404 5.16875 5.1969 5.15956 4.25C5.15956 3.52065 5.45869 2.82118 5.99115 2.30545C6.52361 1.78973 7.24577 1.5 7.99878 1.5C8.75179 1.5 9.47395 1.78973 10.0064 2.30545C10.5389 2.82118 10.838 3.52065 10.838 4.25C10.8297 5.19768 10.9583 6.14182 11.22 7.055C11.2295 7.10044 11.2431 7.14499 11.2607 7.18812C11.2604 7.18936 11.2604 7.19064 11.2607 7.19187C11.6627 8.46937 12.2854 9.36874 12.8429 9.96687C12.9985 10.1337 13.1628 10.2926 13.3352 10.4431C12.9029 10.4887 12.4699 10.5625 12.0982 10.76Z" fill="white"/>
</svg>
