<svg width="16" height="15" viewBox="0 0 16 15" fill="none" xmlns="http://www.w3.org/2000/svg">
<path fill-rule="evenodd" clip-rule="evenodd" d="M12.4764 2.54309C12.1792 2.12474 11.3842 1.53676 10.0966 1.7904C9.34546 1.93781 8.89661 2.30097 8.61113 2.78026C8.30713 3.29083 8.15976 3.98505 8.15976 4.79291C8.15976 5.01132 8.07103 5.22078 7.91311 5.37522C7.75518 5.52965 7.54098 5.61642 7.31764 5.61642C5.32519 5.61642 3.42874 5.03749 1.83293 3.472C1.71231 4.10715 1.66486 4.75352 1.69146 5.39901C1.73609 6.29334 1.9542 7.19014 2.4721 7.95847C2.98158 8.71363 3.81949 9.40537 5.22077 9.84019C5.35808 9.88278 5.48192 9.9591 5.58045 10.0619C5.67898 10.1646 5.74891 10.2904 5.78355 10.4271C5.81819 10.5639 5.81638 10.707 5.7783 10.8429C5.74022 10.9787 5.66713 11.1027 5.56604 11.2031C5.11732 11.6534 4.60859 12.0426 4.05359 12.3601C4.94624 12.4507 5.80688 12.4573 6.60521 12.3865C8.22207 12.2432 9.50967 11.7911 10.3147 11.1512C12.0099 9.80724 12.9169 7.80283 12.7484 4.44456C12.7198 3.89281 13.2647 3.29742 13.5274 2.84531C13.1308 2.91778 12.7333 2.90461 12.4764 2.54309ZM1.34114 0.891954C1.4936 0.874626 1.64802 0.898378 1.78768 0.960644C1.92734 1.02291 2.04695 1.12132 2.13357 1.24524C3.37653 3.02319 4.86876 3.7627 6.52521 3.9307C6.60605 3.23813 6.79721 2.55379 7.15679 1.95098C7.68396 1.06654 8.54123 0.415966 9.76567 0.175502C11.4583 -0.157195 12.7468 0.442318 13.4937 1.17606L15.0028 0.900188C15.1607 0.871254 15.3238 0.887097 15.4728 0.94585C15.6218 1.0046 15.7505 1.10381 15.8437 1.23177C15.937 1.35973 15.9908 1.5111 15.9989 1.66801C16.007 1.82492 15.9691 1.98083 15.8895 2.11733L14.4411 4.60597C14.5733 8.19729 13.5527 10.704 11.3766 12.4309C10.2229 13.3467 8.57071 13.8663 6.75763 14.0269C4.93024 14.1883 2.86453 13.9931 0.811446 13.4068C0.636026 13.3568 0.48201 13.2523 0.37264 13.1091C0.263271 12.966 0.204482 12.7919 0.205148 12.6132C0.205813 12.4345 0.265896 12.2609 0.37633 12.1185C0.486763 11.9762 0.641553 11.8728 0.81734 11.824C1.84978 11.5366 2.63631 11.2887 3.34622 10.8547C2.33652 10.331 1.59293 9.64584 1.06661 8.86515C0.33565 7.77977 0.0644882 6.56921 0.0105928 5.47807C-0.0433027 4.38692 0.117542 3.37565 0.287649 2.64685C0.384493 2.23098 0.497336 1.81428 0.653128 1.4157C0.708081 1.27521 0.801338 1.15211 0.922776 1.05978C1.04421 0.967445 1.18835 0.909404 1.34114 0.891954Z" fill="white"/>
</svg>
