<svg width="16" height="16" viewBox="0 0 16 16" fill="none" xmlns="http://www.w3.org/2000/svg">
<path d="M8 0C6.41775 0 4.87103 0.469192 3.55544 1.34824C2.23985 2.22729 1.21447 3.47672 0.608967 4.93853C0.00346629 6.40034 -0.15496 8.00887 0.153721 9.56072C0.462403 11.1126 1.22433 12.538 2.34315 13.6569C3.46197 14.7757 4.88743 15.5376 6.43928 15.8463C7.99113 16.155 9.59966 15.9965 11.0615 15.391C12.5233 14.7855 13.7727 13.7602 14.6518 12.4446C15.5308 11.129 16 9.58225 16 8C15.9976 5.87899 15.154 3.84553 13.6543 2.34574C12.1545 0.845963 10.121 0.00235276 8 0ZM8.88889 14.1578V10.0741H10.3704C10.6061 10.0741 10.8322 9.98042 10.9989 9.81372C11.1656 9.64702 11.2593 9.42093 11.2593 9.18518C11.2593 8.94944 11.1656 8.72334 10.9989 8.55664C10.8322 8.38995 10.6061 8.2963 10.3704 8.2963H8.88889V6.81481C8.88889 6.57907 8.98254 6.35297 9.14924 6.18627C9.31594 6.01958 9.54203 5.92592 9.77778 5.92592H10.963C11.1987 5.92592 11.4248 5.83227 11.5915 5.66558C11.7582 5.49888 11.8519 5.27278 11.8519 5.03704C11.8519 4.80129 11.7582 4.5752 11.5915 4.4085C11.4248 4.2418 11.1987 4.14815 10.963 4.14815H9.77778C9.07054 4.14815 8.39226 4.4291 7.89216 4.9292C7.39207 5.42929 7.11111 6.10757 7.11111 6.81481V8.2963H5.62963C5.39388 8.2963 5.16779 8.38995 5.00109 8.55664C4.83439 8.72334 4.74074 8.94944 4.74074 9.18518C4.74074 9.42093 4.83439 9.64702 5.00109 9.81372C5.16779 9.98042 5.39388 10.0741 5.62963 10.0741H7.11111V14.1578C5.55415 13.933 4.14009 13.1269 3.15352 11.9016C2.16695 10.6763 1.6811 9.12285 1.79376 7.55379C1.90641 5.98472 2.6092 4.51657 3.76069 3.44478C4.91218 2.373 6.4269 1.77715 8 1.77715C9.5731 1.77715 11.0878 2.373 12.2393 3.44478C13.3908 4.51657 14.0936 5.98472 14.2062 7.55379C14.3189 9.12285 13.8331 10.6763 12.8465 11.9016C11.8599 13.1269 10.4459 13.933 8.88889 14.1578Z" fill="white"/>
</svg>
