<svg width="16" height="17" viewBox="0 0 16 17" fill="none" xmlns="http://www.w3.org/2000/svg">
<path d="M8 0.0812988C12.4184 0.0812988 16 3.6629 16 8.0813C16 12.4997 12.4184 16.0813 8 16.0813C6.63838 16.0832 5.29898 15.7362 4.10961 15.0733L3.8656 14.9309L1.44001 15.6445C1.30801 15.6834 1.16826 15.6879 1.03402 15.6577C0.899774 15.6274 0.775479 15.5634 0.672916 15.4717C0.570353 15.3799 0.492921 15.2635 0.447961 15.1334C0.403 15.0034 0.392001 14.864 0.416006 14.7285L0.436806 14.6413L1.15041 12.2157C0.396049 10.9687 -0.00184995 9.5387 6.46627e-06 8.0813C6.46627e-06 3.6629 3.5816 0.0812988 8 0.0812988ZM8 1.6813C6.85411 1.68109 5.72917 1.98854 4.74267 2.57155C3.75617 3.15456 2.94429 3.99173 2.39182 4.99565C1.83934 5.99957 1.56654 7.13341 1.60189 8.27876C1.63725 9.42411 1.97946 10.539 2.59281 11.5069C2.75121 11.7565 2.81921 12.0637 2.76561 12.3685L2.73441 12.4989L2.38161 13.6997L3.58241 13.3469C3.92881 13.2445 4.28881 13.3069 4.5744 13.4885C5.41307 14.0195 6.36376 14.3482 7.35132 14.4485C8.33888 14.5488 9.33625 14.4181 10.2646 14.0666C11.1929 13.715 12.0267 13.1524 12.7001 12.4231C13.3736 11.6938 13.8681 10.8179 14.1447 9.86458C14.4213 8.91124 14.4723 7.90664 14.2938 6.93018C14.1153 5.95372 13.712 5.03218 13.116 4.2384C12.52 3.44462 11.7474 2.80036 10.8595 2.35656C9.97162 1.91276 8.99265 1.68158 8 1.6813ZM5.6816 4.2285C5.77026 4.19053 5.86722 4.17611 5.96309 4.18662C6.05895 4.19713 6.15048 4.23222 6.2288 4.2885C6.632 4.5829 6.952 4.9781 7.2272 5.3637L7.4888 5.7429L7.6112 5.9229C7.68209 6.02606 7.71691 6.14975 7.71025 6.27475C7.7036 6.39974 7.65584 6.51904 7.5744 6.6141L7.5144 6.6749L6.7752 7.2237C6.74003 7.24978 6.71531 7.28754 6.70549 7.33021C6.69566 7.37288 6.70138 7.41766 6.7216 7.45649C6.8896 7.76049 7.1864 8.2141 7.5272 8.55489C7.8688 8.89569 8.3432 9.21249 8.668 9.39889C8.7384 9.43889 8.8232 9.42609 8.8808 9.37409L8.9112 9.33809L9.392 8.60609C9.48014 8.48834 9.61051 8.40937 9.75569 8.3858C9.90087 8.36222 10.0495 8.39588 10.1704 8.47969L10.6048 8.78289C11.0368 9.09089 11.452 9.42209 11.7808 9.84209C11.8416 9.92102 11.8803 10.0148 11.8928 10.1136C11.9053 10.2125 11.8912 10.3129 11.852 10.4045C11.5352 11.1437 10.7328 11.7733 9.8992 11.7429L9.772 11.7349L9.6192 11.7205L9.5328 11.7093L9.3424 11.6773C8.6032 11.5381 7.4184 11.1189 6.1904 9.89169C4.9632 8.66369 4.544 7.4789 4.4048 6.7397L4.37281 6.5493L4.35281 6.3829L4.3424 6.2429L4.3392 6.1829C4.3088 5.3477 4.94161 4.5453 5.6816 4.2285Z" fill="white"/>
</svg>
