<svg width="18" height="18" viewBox="0 0 18 18" fill="none" xmlns="http://www.w3.org/2000/svg">
<path d="M9 17.5C6.63889 17.5 4.63194 16.6736 2.97917 15.0208C1.32639 13.3681 0.5 11.3611 0.5 9C0.5 6.63889 1.32639 4.63194 2.97917 2.97917C4.63194 1.32639 6.63889 0.5 9 0.5C9.22037 0.5 9.43696 0.50787 9.64978 0.523611C9.86259 0.539352 10.071 0.562963 10.275 0.594444C9.62963 1.05093 9.11396 1.6453 8.728 2.37756C8.34204 3.10981 8.14937 3.90063 8.15 4.75C8.15 6.16667 8.64583 7.37083 9.6375 8.3625C10.6292 9.35417 11.8333 9.85 13.25 9.85C14.1157 9.85 14.9106 9.65702 15.6347 9.27106C16.3588 8.88509 16.9491 8.36974 17.4056 7.725C17.437 7.92963 17.4606 8.13804 17.4764 8.35022C17.4921 8.56241 17.5 8.779 17.5 9C17.5 11.3611 16.6736 13.3681 15.0208 15.0208C13.3681 16.6736 11.3611 17.5 9 17.5ZM9 15.6111C10.3852 15.6111 11.6287 15.2292 12.7306 14.4655C13.8324 13.7018 14.6352 12.7063 15.1389 11.4792C14.8241 11.5579 14.5093 11.6208 14.1944 11.6681C13.8796 11.7153 13.5648 11.7389 13.25 11.7389C11.3139 11.7389 9.66489 11.0579 8.303 9.69606C6.94111 8.33417 6.26048 6.68548 6.26111 4.75C6.26111 4.43518 6.28472 4.12037 6.33194 3.80556C6.37917 3.49074 6.44213 3.17593 6.52083 2.86111C5.29306 3.36481 4.2973 4.16759 3.53356 5.26944C2.76981 6.3713 2.38826 7.61481 2.38889 9C2.38889 10.8259 3.03426 12.3843 4.325 13.675C5.61574 14.9657 7.17407 15.6111 9 15.6111Z" fill="#1B1B1B"/>
</svg>
