<svg viewBox="0 0 512 512" xmlns="http://www.w3.org/2000/svg"><g id="EDUCATION_OUTLINE" data-name="EDUCATION OUTLINE"><path d="m382.44 191.68a33.76 33.76 0 0 0 -31.75 22.32l-96.81 267.38a22.85 22.85 0 1 0 43.12 15.2l13-37.79 1.18-3.45h142.12l1.19 3.45 13 37.79a22.85 22.85 0 0 0 21.59 15.42h.05a22.85 22.85 0 0 0 21.5-30.6l-96.43-267.4a33.76 33.76 0 0 0 -31.76-22.31zm1.71 65.23 3.38 9.68 48.91 140.24 2.36 6.77h-113.16l2.36-6.77 48.91-140.24 3.41-9.68a2 2 0 0 1 3.83 0z"/><path d="m19.38 86.11h271.14l-3.29 7.21a470.85 470.85 0 0 1 -87.09 129.33l-3.72 3.92-3.72-3.92a468.65 468.65 0 0 1 -59.94-78.21 19.51 19.51 0 0 0 -16.63-9.39h-.08a19.43 19.43 0 0 0 -16.61 29.52 506.25 506.25 0 0 0 65 84.79l3.72 3.91-4.16 3.49c-1.92 1.62-3.64 3.06-5.26 4.38l-96.13 78.74a19.43 19.43 0 0 0 -2.61 27.42 19.43 19.43 0 0 0 27.27 2.64l96.32-78.89c2.89-2.36 6-5 9.5-8l3.36-2.9 3.35 2.9c3.2 2.75 6.4 5.45 9.52 8l26.88 22.05a19.42 19.42 0 1 0 24.61-30.05l-26.75-21.91c-1.45-1.19-2.89-2.41-4.29-3.59l-1-.81-4.12-3.49 3.72-3.91a510 510 0 0 0 103-160l1.29-3.18h40.79a19.38 19.38 0 0 0 19.38-19.38 19.38 19.38 0 0 0 -19.38-19.38h-157.55v-28a19.38 19.38 0 0 0 -19.38-19.4h-.23a19.38 19.38 0 0 0 -19.38 19.38v28h-157.53a19.38 19.38 0 0 0 -19.38 19.35 19.38 19.38 0 0 0 19.38 19.38z"/></g></svg>