<svg width="52" height="38" viewBox="0 0 52 38" fill="none" xmlns="http://www.w3.org/2000/svg">
<path d="M37.0685 30.8344C36.9533 29.798 36.5051 28.829 35.793 28.0771C35.3026 27.6037 34.6604 27.3259 33.9843 27.2946C33.6673 27.2996 33.357 27.3878 33.0835 27.5505C32.7739 27.7119 32.5219 27.9677 32.3629 28.2819C32.2546 28.5276 32.0815 28.7381 31.8628 28.8904C31.6442 29.0427 31.3883 29.1307 31.1235 29.1449H30.5398C30.5204 28.2258 30.8592 27.336 31.4826 26.6691C32.106 26.0021 32.9636 25.6119 33.869 25.5832H34.2869C35.1058 25.6506 35.8897 25.9496 36.5496 26.4462C37.3035 27.0409 37.888 27.8284 38.243 28.728C38.5229 29.3973 38.705 30.1044 38.7835 30.8271H39.1222V32.5385H25.2794V30.8344H31.1739H37.0685Z" fill="#CF820D"/>
<path d="M10.5288 27.4043C10.325 27.4314 10.1229 27.4705 9.92349 27.5213C9.3549 27.6686 8.84901 27.9998 8.48229 28.4648C8.14182 28.8558 7.9457 29.3547 7.92743 29.8763C7.92571 30.0857 7.99433 30.2895 8.12199 30.4541C8.24689 30.6217 8.41715 30.7487 8.612 30.8197H8.90745C9.15753 30.811 9.40656 30.8567 9.63776 30.9538C9.86897 31.051 10.077 31.1973 10.2478 31.3829C10.5916 31.7373 10.7921 32.2096 10.8098 32.7067C10.8209 32.9612 10.7777 33.2152 10.6832 33.4512C10.5887 33.6873 10.4451 33.8998 10.2622 34.0743C9.82207 34.5219 9.29486 34.8714 8.7142 35.1006C8.13353 35.3298 7.51217 35.4336 6.88976 35.4054C5.76789 35.3647 4.70355 34.8913 3.91368 34.0816C3.45951 33.6325 3.10439 33.0907 2.8718 32.492C2.63921 31.8932 2.53444 31.2512 2.56441 30.6084C2.59437 29.9655 2.7584 29.3364 3.04565 28.7627C3.33289 28.1889 3.73682 27.6835 4.23075 27.2799L4.46855 27.5871C4.66901 27.8532 4.78815 28.1731 4.81121 28.5072C4.83427 28.8413 4.76022 29.1749 4.59825 29.4667C4.37569 29.8839 4.25863 30.3507 4.25757 30.8252C4.25651 31.2996 4.37147 31.7669 4.59216 32.1851C4.81285 32.6034 5.13236 32.9595 5.52204 33.2216C5.91172 33.4837 6.35939 33.6435 6.82491 33.6867C7.23327 33.728 7.64557 33.6765 8.03193 33.5361C8.41828 33.3957 8.76904 33.1699 9.05877 32.8749C9.08603 32.8449 9.10452 32.8078 9.11216 32.7678C9.11979 32.7277 9.11628 32.6863 9.10201 32.6482C9.08615 32.6126 9.06094 32.5822 9.02916 32.5603C8.99738 32.5384 8.96025 32.5257 8.92186 32.5238H8.4967C7.87199 32.4208 7.30439 32.0939 6.89697 31.6023C6.48542 31.1246 6.25992 30.5108 6.26284 29.8763C6.25717 29.3252 6.36736 28.7792 6.58606 28.2747C6.80476 27.7702 7.12694 27.3189 7.5311 26.9508C8.57583 26.038 9.91431 25.5462 11.2926 25.5685H12.251V29.8763C12.2548 30.1402 12.3602 30.392 12.5448 30.578C12.7293 30.7639 12.9782 30.8691 13.2383 30.8709H13.4688V32.5823H13.2383C12.885 32.5862 12.5345 32.5192 12.2069 32.3851C11.8793 32.251 11.581 32.0525 11.3292 31.801C11.0774 31.5496 10.8771 31.2501 10.7397 30.9197C10.6024 30.5894 10.5307 30.2348 10.5288 29.8763V27.4043ZM6.92579 36.9705C6.93065 36.835 6.90752 36.6999 6.85788 36.5739C6.80824 36.448 6.73319 36.3339 6.63755 36.2392C6.54314 36.1435 6.43062 36.0683 6.30677 36.018C6.18292 35.9677 6.05031 35.9434 5.91695 35.9466C5.78338 35.9417 5.65027 35.9652 5.52617 36.0155C5.40207 36.0659 5.28973 36.1421 5.19635 36.2392C5.09922 36.3328 5.02318 36.4466 4.97343 36.5729C4.92368 36.6991 4.9014 36.8347 4.90811 36.9705C4.9081 37.235 5.01113 37.4888 5.19471 37.6765C5.37829 37.8642 5.62755 37.9706 5.88813 37.9725C6.14996 37.9725 6.40106 37.8669 6.5862 37.679C6.77134 37.4911 6.87535 37.2363 6.87535 36.9705H6.92579ZM9.13083 36.9705C9.13707 36.8354 9.11528 36.7005 9.06687 36.5746C9.01845 36.4486 8.9445 36.3343 8.8498 36.2392C8.66366 36.0525 8.41251 35.9478 8.15082 35.9478C7.88912 35.9478 7.63797 36.0525 7.45183 36.2392C7.3562 36.3339 7.28115 36.448 7.23151 36.5739C7.18187 36.6999 7.15873 36.835 7.16359 36.9705C7.16046 37.1059 7.18439 37.2405 7.23393 37.3662C7.28347 37.4919 7.3576 37.6061 7.45183 37.7019C7.59018 37.845 7.76791 37.9424 7.96173 37.9812C8.15554 38.02 8.35639 37.9984 8.53793 37.9194C8.71947 37.8403 8.87322 37.7074 8.97902 37.5381C9.08483 37.3687 9.13774 37.1709 9.13083 36.9705Z" fill="#CF820D"/>
<path d="M15.1335 24.0254C15.1335 24.2912 15.0295 24.546 14.8443 24.7339C14.6592 24.9218 14.4081 25.0274 14.1462 25.0274C13.8844 25.0274 13.6333 24.9218 13.4482 24.7339C13.263 24.546 13.159 24.2912 13.159 24.0254C13.159 23.7597 13.263 23.5048 13.4482 23.3169C13.6333 23.129 13.8844 23.0234 14.1462 23.0234C14.4081 23.0234 14.6592 23.129 14.8443 23.3169C15.0295 23.5048 15.1335 23.7597 15.1335 24.0254ZM16.2288 29.8763V27.2946C16.2257 27.0692 16.2676 26.8455 16.3518 26.6369C16.436 26.4282 16.5608 26.239 16.7188 26.0806C16.8736 25.9179 17.0596 25.7891 17.2653 25.7023C17.4711 25.6155 17.6922 25.5725 17.915 25.5759V29.8763C17.915 30.2323 17.8458 30.5848 17.7113 30.9136C17.5769 31.2424 17.3799 31.541 17.1315 31.7924C16.8832 32.0438 16.5884 32.243 16.2641 32.3785C15.9398 32.5141 15.5923 32.5834 15.2416 32.5824H13.1302V30.8344H15.2416C15.4955 30.8329 15.7393 30.7328 15.9229 30.5546C16.1065 30.3765 16.2159 30.1338 16.2288 29.8763ZM16.2288 22.0215C16.2346 22.1571 16.2118 22.2925 16.1621 22.4186C16.1125 22.5447 16.0369 22.6586 15.9405 22.7528C15.8472 22.8499 15.7348 22.9261 15.6107 22.9765C15.4866 23.0268 15.3535 23.0503 15.2199 23.0454C14.9581 23.0454 14.707 22.9398 14.5219 22.7519C14.3367 22.564 14.2327 22.3092 14.2327 22.0434C14.2283 21.9079 14.2516 21.7729 14.3013 21.647C14.3509 21.5212 14.4257 21.4071 14.521 21.312C14.6151 21.2174 14.7281 21.1443 14.8524 21.0976C14.9767 21.051 15.1094 21.0318 15.2416 21.0414C15.3738 21.0308 15.5068 21.0495 15.6312 21.0963C15.7556 21.143 15.8686 21.2166 15.9622 21.312C16.1246 21.4964 16.2099 21.7378 16.2 21.9849L16.2288 22.0215ZM17.2953 24.0254C17.2998 24.1603 17.2772 24.2947 17.2289 24.4204C17.1805 24.5462 17.1075 24.6606 17.0142 24.7568C16.9196 24.8521 16.807 24.9271 16.6832 24.9773C16.5594 25.0276 16.4269 25.0521 16.2936 25.0493C16.0331 25.0417 15.786 24.9297 15.6065 24.7379C15.4269 24.5461 15.3294 24.2899 15.3352 24.0254C15.3371 23.7615 15.4407 23.5089 15.6239 23.3216C15.8071 23.1343 16.0553 23.0273 16.3153 23.0234C16.4493 23.0199 16.5826 23.0447 16.7067 23.0964C16.8307 23.148 16.9428 23.2253 17.0359 23.3233C17.1231 23.4169 17.1909 23.5272 17.2355 23.6477C17.28 23.7683 17.3004 23.8967 17.2953 24.0254Z" fill="#CF820D"/>
<path d="M22.2241 30.8271C22.2386 31.4355 22.1281 32.0404 21.8999 32.6032C21.6716 33.166 21.3305 33.6745 20.8982 34.0963C20.4583 34.5344 19.9348 34.8766 19.3598 35.1017C18.7848 35.3269 18.1704 35.4302 17.5546 35.4054C17.5543 34.9932 17.6765 34.5905 17.9054 34.2499C18.1342 33.9093 18.459 33.6468 18.8373 33.4966C19.3539 33.2789 19.7931 32.9071 20.0968 32.4304C20.4005 31.9537 20.5543 31.3945 20.5379 30.8271V27.2873C20.5338 27.0621 20.5759 26.8386 20.6615 26.6308C20.7471 26.4231 20.8743 26.2357 21.0351 26.0805C21.1888 25.9184 21.3736 25.79 21.5781 25.7032C21.7826 25.6164 22.0025 25.573 22.2241 25.5759V30.8271Z" fill="#CF820D"/>
<path d="M42.473 21.0048V29.8763C42.473 30.2323 42.4038 30.5848 42.2693 30.9136C42.1349 31.2423 41.9379 31.541 41.6895 31.7924C41.4412 32.0437 41.1464 32.2429 40.8221 32.3785C40.4978 32.514 40.1503 32.5833 39.7996 32.5824H38.8195V30.8344H39.7996C39.9331 30.8389 40.0661 30.8152 40.1901 30.7648C40.3141 30.7145 40.4265 30.6385 40.5202 30.5418C40.6156 30.4473 40.6901 30.3331 40.7385 30.207C40.787 30.0808 40.8084 29.9457 40.8012 29.8105V22.7162C40.797 22.49 40.839 22.2653 40.9245 22.0563C41.0101 21.8474 41.1374 21.6587 41.2984 21.5022C41.45 21.3418 41.6325 21.2148 41.8346 21.1292C42.0367 21.0437 42.254 21.0013 42.473 21.0048Z" fill="#CF820D"/>
<path d="M45.5067 32.0704C45.3492 32.231 45.1615 32.3577 44.9548 32.4432C44.748 32.5286 44.5265 32.571 44.3033 32.5677V22.7309C44.3016 22.505 44.3447 22.2811 44.4302 22.0725C44.5156 21.8639 44.6415 21.6749 44.8005 21.5168C44.9545 21.3556 45.1395 21.2283 45.3441 21.1428C45.5486 21.0572 45.7683 21.0152 45.9895 21.0195V30.8344C45.9968 31.063 45.9578 31.2907 45.8747 31.5034C45.7916 31.716 45.6664 31.909 45.5067 32.0704Z" fill="#CF820D"/>
<path d="M15.1838 5.41212C15.0396 5.41595 14.8963 5.38857 14.7634 5.33183C14.6304 5.27508 14.5109 5.19026 14.4128 5.08301C14.2147 4.87794 14.1038 4.60223 14.1038 4.31507C14.1038 4.02792 14.2147 3.75221 14.4128 3.54714C14.5109 3.43988 14.6304 3.35506 14.7634 3.29832C14.8963 3.24157 15.0396 3.2142 15.1838 3.21802C15.4647 3.22124 15.734 3.33248 15.9373 3.52929C16.1406 3.72611 16.2627 3.99385 16.2791 4.2785C16.2754 4.57216 16.1588 4.85272 15.9542 5.06039C15.7496 5.26805 15.4731 5.38639 15.1838 5.39018V5.41212Z" fill="#CF820D"/>
<path d="M31.4695 5.41208C31.1764 5.40822 30.8967 5.28685 30.6915 5.07446C30.4863 4.86208 30.3722 4.57592 30.3742 4.27846C30.3779 3.9848 30.4945 3.70424 30.6991 3.49658C30.9037 3.28891 31.1801 3.17057 31.4695 3.16678C31.6194 3.17057 31.7668 3.20639 31.9022 3.27192C32.0375 3.33746 32.1577 3.43122 32.2549 3.54709C32.4485 3.74034 32.5597 4.00291 32.5648 4.27846C32.569 4.42353 32.5437 4.56793 32.4904 4.70259C32.4371 4.83726 32.3569 4.95929 32.2549 5.06102C32.1551 5.17156 32.0337 5.25985 31.8985 5.32028C31.7633 5.38071 31.6172 5.41197 31.4695 5.41208Z" fill="#CF820D"/>
<path d="M24.1049 19.6957H4.20911C3.65587 19.7074 3.10626 19.6023 2.59517 19.387C2.08408 19.1717 1.62267 18.851 1.24023 18.4451C0.838636 18.0578 0.520997 17.5898 0.30759 17.071C0.0941827 16.5522 -0.0103033 15.9939 0.000800773 15.4318V11.5922C0.373158 11.7101 0.710216 11.9214 0.980818 12.2065C1.2109 12.4258 1.39372 12.691 1.51774 12.9856C1.64177 13.2801 1.70431 13.5976 1.70142 13.9179V15.4611C1.69534 15.797 1.75601 16.1308 1.87982 16.4424C2.00363 16.754 2.18803 17.0372 2.42202 17.2749C2.65805 17.5119 2.93835 17.6987 3.24647 17.8243C3.55459 17.9499 3.88432 18.0117 4.21631 18.0062H11.4223L11.0404 17.0116C10.8577 16.5157 10.765 15.9904 10.7666 15.4611C10.7602 14.2265 11.1083 13.0168 11.7682 11.9798C12.4981 10.8296 13.5353 9.91389 14.7587 9.33954C16.1349 8.70008 17.6266 8.35645 19.14 8.33026V15.4611C19.1429 15.9912 19.0476 16.5172 18.8589 17.0116L18.4842 18.0062H24.0977V2.33306C24.0941 2.01049 24.1563 1.69065 24.2803 1.39362C24.4043 1.0966 24.5875 0.828795 24.8183 0.607034C25.0851 0.325896 25.4171 0.11718 25.7839 0V12.2211L27.0449 10.8023C27.3822 10.4214 27.7564 10.0759 28.1619 9.77105C29.2573 8.92788 30.5675 8.42033 31.9378 8.30832H32.5864C34.0733 8.34995 35.4852 8.97987 36.5208 10.0636C37.0294 10.5767 37.4296 11.1896 37.6972 11.8648C37.9648 12.54 38.0942 13.2634 38.0773 13.991C38.0929 14.941 37.8644 15.8786 37.4144 16.7117L37.0036 17.4431L37.7891 17.7429C38.2089 17.9058 38.6516 17.9996 39.1006 18.0209H41.1111C41.4443 18.0273 41.7754 17.9659 42.0848 17.8403C42.3942 17.7147 42.6757 17.5274 42.9126 17.2895C43.1472 17.0523 43.3321 16.7693 43.4559 16.4575C43.5798 16.1458 43.6401 15.8118 43.6332 15.4757V8.31563C45.1518 8.34317 46.6484 8.68928 48.0288 9.33223C49.2418 9.91296 50.274 10.8213 51.0121 11.9578C51.6627 13.0012 52.0052 14.2118 51.9993 15.4465C52.0093 16.0038 51.9056 16.5572 51.6948 17.072C51.484 17.5868 51.1706 18.0517 50.7743 18.4377C50.3958 18.8453 49.9373 19.1678 49.4284 19.3845C48.9196 19.6012 48.3716 19.7072 47.8199 19.6957C47.2889 19.7085 46.7608 19.6143 46.266 19.4184C45.7712 19.2226 45.3196 18.929 44.9375 18.5548L44.4474 18.0794L43.9502 18.5548C43.568 18.929 43.1165 19.2226 42.6217 19.4184C42.1269 19.6143 41.5988 19.7085 41.0678 19.6957H39.0285C38.0321 19.6524 37.0638 19.3475 36.2182 18.8107L35.8291 18.5621L35.4471 18.8107C34.5797 19.3578 33.5855 19.663 32.5647 19.6957H25.7767V33.1674C25.7758 33.6829 25.6133 34.1847 25.3128 34.6002C25.0122 35.0157 24.5892 35.3233 24.1049 35.4786V19.6957ZM45.3122 15.4465C45.3071 15.9572 45.4531 16.4578 45.7313 16.8834C46.0096 17.3091 46.4072 17.6402 46.8729 17.834C47.3386 18.0277 47.8508 18.0752 48.3433 17.9704C48.8359 17.8655 49.2861 17.613 49.6358 17.2456C49.8697 17.0109 50.0542 16.7304 50.178 16.4211C50.3019 16.1118 50.3626 15.7802 50.3564 15.4465C50.329 14.3496 49.9551 13.2908 49.2899 12.4259C48.5295 11.4173 47.4376 10.7192 46.2129 10.4585L45.3266 10.2464L45.3122 15.4465ZM32.0027 10.0343C28.832 10.4 26.8216 12.7916 26.0289 17.1359L25.8704 18.0062H32.5359C33.5804 17.9671 34.5716 17.5282 35.3102 16.7775C36.0124 16.0307 36.4042 15.038 36.4042 14.0057C36.4042 12.9733 36.0124 11.9807 35.3102 11.2338C34.6021 10.4828 33.6317 10.0442 32.608 10.0124H32.4278C32.3174 10.0054 32.2067 10.0054 32.0964 10.0124L32.0027 10.0343ZM16.5746 10.4658C15.3599 10.7317 14.2788 11.4295 13.5265 12.4332C12.8402 13.2905 12.4571 14.3567 12.4384 15.4611C12.4325 15.9722 12.5785 16.4733 12.8573 16.8991C13.136 17.3249 13.5347 17.6556 14.0012 17.8482C14.4678 18.0407 14.9807 18.0863 15.4731 17.9788C15.9655 17.8713 16.4146 17.6158 16.762 17.2456C16.9977 17.0092 17.1832 16.7263 17.3071 16.4144C17.431 16.1024 17.4907 15.7681 17.4826 15.4318V10.2391L16.5746 10.4658Z" fill="#CF820D"/>
</svg>
